<?xml version="1.0" standalone="no"?><!DOCTYPE svg PUBLIC "-//W3C//DTD SVG 1.1//EN" "http://www.w3.org/Graphics/SVG/1.1/DTD/svg11.dtd"><svg t="1704293707944" class="icon" viewBox="0 0 1024 1024" version="1.1" xmlns="http://www.w3.org/2000/svg" p-id="32211" width="32" height="32" xmlns:xlink="http://www.w3.org/1999/xlink"><path d="M810.057143 42.057143a170.660571 170.660571 0 0 1 170.660571 170.660571V810.057143a170.660571 170.660571 0 0 1-170.660571 170.660571H212.717714A170.660571 170.660571 0 0 1 42.057143 810.057143V212.717714A170.660571 170.660571 0 0 1 212.717714 42.057143H810.057143zM562.816 459.977143a28.452571 28.452571 0 1 0-40.228571 40.228571c28.288 28.269714 28.105143 72.448 1.865142 98.688a30.171429 30.171429 0 0 0-0.950857 1.005715 29.019429 29.019429 0 0 0-0.914285 0.859428l-129.993143 130.011429c-26.221714 26.221714-70.4 26.404571-98.706286-1.883429-28.269714-28.269714-28.086857-72.466286-1.846857-98.688l0.146286-0.146286 97.243428-98.688a28.452571 28.452571 0 1 0-40.521143-39.936l-97.188571 98.614858c-49.371429 49.462857-47.506286 129.627429 1.956571 179.072 49.462857 49.481143 129.682286 51.328 179.145143 1.865142l130.011429-129.993142a30.171429 30.171429 0 0 0 0.914285-0.987429 31.268571 31.268571 0 0 0 0.914286-0.877714c49.481143-49.462857 47.634286-129.682286-1.846857-179.145143z m202.331429-208.603429c-49.682286-46.226286-127.396571-46.902857-175.725715 1.444572l-130.011428 129.974857a35.492571 35.492571 0 0 0-0.438857 0.475428c-49.005714 49.499429-46.994286 129.371429 2.304 178.706286a28.452571 28.452571 0 0 0 40.228571-40.228571c-28.269714-28.288-28.086857-72.466286-1.846857-98.706286l129.974857-130.011429 2.779429-2.614857c26.496-23.588571 68.626286-22.820571 95.926857 4.48l2.834285 2.980572c25.417143 28.342857 24.356571 70.4-0.969142 95.725714l-0.091429 0.109714-96.713143 97.664a28.452571 28.452571 0 0 0 40.411429 40.027429l96.676571-97.627429c49.408-49.462857 47.542857-129.645714-1.92-179.108571z" fill="#1296db" p-id="32212"></path></svg>