<?xml version="1.0" standalone="no"?><!DOCTYPE svg PUBLIC "-//W3C//DTD SVG 1.1//EN" "http://www.w3.org/Graphics/SVG/1.1/DTD/svg11.dtd"><svg t="1704296595212" class="icon" viewBox="0 0 1024 1024" version="1.1" xmlns="http://www.w3.org/2000/svg" p-id="8915" width="32" height="32" xmlns:xlink="http://www.w3.org/1999/xlink"><path d="M1003.402012 0h-982.904014C9.199102 0 0 9.199102 0 20.497998v798.62201c0 11.298897 9.199102 20.497998 20.497998 20.497998h982.904014c11.298897 0 20.497998-9.199102 20.497998-20.497998V20.497998c0-11.298897-9.199102-20.497998-20.497998-20.497998z" fill="#3F6AFF" p-id="8916"></path><path d="M61.394004 61.394004h901.012011v655.336003H61.394004z" fill="#333333" p-id="8917"></path><path d="M798.62201 942.008007H225.278c-11.298897 0-20.497998 9.199102-20.497998 20.497998v40.995997c0 11.298897 9.199102 20.497998 20.497998 20.497998h573.34401c11.298897 0 20.497998-9.199102 20.497998-20.497998v-40.995997c0-11.398887-9.199102-20.497998-20.497998-20.497998z" fill="#3F6AFF" p-id="8918"></path><path d="M880.514012 778.124011h40.995997v61.394005h-40.995997z" fill="#FFE900" p-id="8919"></path><path d="M409.560004 839.618006h204.780002v102.390001H409.560004z" fill="#3F6AFF" p-id="8920"></path><path d="M511.950005 307.170003m-81.892003 0a81.892003 81.892003 0 1 0 163.784006 0 81.892003 81.892003 0 1 0-163.784006 0Z" fill="#FFE900" p-id="8921"></path><path d="M511.950005 307.170003m-40.995997 0a40.995996 40.995996 0 1 0 81.991993 0 40.995996 40.995996 0 1 0-81.991993 0Z" fill="#3F6AFF" p-id="8922"></path><path d="M368.564007 450.556h286.672005v40.995997H368.564007z" fill="#FFE900" p-id="8923"></path></svg>